<svg xmlns="http://www.w3.org/2000/svg" version="1.1" width="3000px" height="2250px" style="shape-rendering:geometricPrecision; text-rendering:geometricPrecision; image-rendering:optimizeQuality; fill-rule:evenodd; clip-rule:evenodd" xmlns:xlink="http://www.w3.org/1999/xlink">
<g><path style="opacity:0.488" fill="#41566d" d="M 1484.5,912.5 C 1495.17,912.5 1505.83,912.5 1516.5,912.5C 1516.5,1003.83 1516.5,1095.17 1516.5,1186.5C 1505.83,1186.5 1495.17,1186.5 1484.5,1186.5C 1484.5,1095.17 1484.5,1003.83 1484.5,912.5 Z"/></g>
<g><path style="opacity:0.979" fill="#41566d" d="M 749.5,944.5 C 798.501,944.333 847.501,944.5 896.5,945C 929.89,951.094 947.89,971.094 950.5,1005C 949.977,1020.74 944.644,1034.58 934.5,1046.5C 953.546,1064.81 959.712,1086.81 953,1112.5C 944.141,1136.7 926.975,1150.53 901.5,1154C 850.834,1154.5 800.168,1154.67 749.5,1154.5C 749.5,1084.5 749.5,1014.5 749.5,944.5 Z M 778.5,975.5 C 818.201,975.036 857.868,975.536 897.5,977C 913.173,983.171 920.006,994.671 918,1011.5C 915.02,1021.82 908.52,1028.98 898.5,1033C 858.54,1034.47 818.54,1034.97 778.5,1034.5C 778.5,1014.83 778.5,995.167 778.5,975.5 Z M 778.5,1064.5 C 819.835,1064.33 861.168,1064.5 902.5,1065C 921.485,1072.47 927.985,1085.97 922,1105.5C 917.84,1113.68 911.34,1119.18 902.5,1122C 861.206,1123.47 819.873,1123.97 778.5,1123.5C 778.5,1103.83 778.5,1084.17 778.5,1064.5 Z"/></g>
<g><path style="opacity:0.972" fill="#41566d" d="M 969.5,944.5 C 1013.17,944.333 1056.83,944.5 1100.5,945C 1153.06,952.558 1184.56,982.392 1195,1034.5C 1199.35,1083.64 1180.18,1120.14 1137.5,1144C 1125.78,1149.57 1113.44,1152.91 1100.5,1154C 1056.83,1154.5 1013.17,1154.67 969.5,1154.5C 969.5,1144.17 969.5,1133.83 969.5,1123.5C 1014.19,1123.96 1058.86,1123.46 1103.5,1122C 1134.87,1114.97 1154.87,1095.97 1163.5,1065C 1110.17,1064.5 1056.83,1064.33 1003.5,1064.5C 1003.5,1054.5 1003.5,1044.5 1003.5,1034.5C 1056.83,1034.67 1110.17,1034.5 1163.5,1034C 1154.98,1003.48 1135.31,984.479 1104.5,977C 1059.2,975.536 1013.86,975.036 968.5,975.5C 968.716,965.162 969.049,954.829 969.5,944.5 Z"/></g>
<g><path style="opacity:0.973" fill="#41566d" d="M 1214.5,944.5 C 1279.5,944.5 1344.5,944.5 1409.5,944.5C 1409.5,954.833 1409.5,965.167 1409.5,975.5C 1354.5,975.5 1299.5,975.5 1244.5,975.5C 1244.5,995.167 1244.5,1014.83 1244.5,1034.5C 1288.5,1034.33 1332.5,1034.5 1376.5,1035C 1405.12,1040.62 1421.96,1057.79 1427,1086.5C 1428.71,1120.78 1413.21,1142.95 1380.5,1153C 1325.2,1154.47 1269.86,1154.97 1214.5,1154.5C 1214.5,1084.5 1214.5,1014.5 1214.5,944.5 Z M 1244.5,1064.5 C 1287.5,1064.33 1330.5,1064.5 1373.5,1065C 1392.37,1071.9 1399.2,1085.06 1394,1104.5C 1390.02,1113.15 1383.52,1118.98 1374.5,1122C 1331.2,1123.47 1287.87,1123.97 1244.5,1123.5C 1244.5,1103.83 1244.5,1084.17 1244.5,1064.5 Z"/></g>
<g><path style="opacity:0.491" fill="#41566d" d="M 1574.5,944.5 C 1661.83,944.5 1749.17,944.5 1836.5,944.5C 1836.5,1003.5 1836.5,1062.5 1836.5,1121.5C 1760.17,1121.5 1683.83,1121.5 1607.5,1121.5C 1607.5,1132.5 1607.5,1143.5 1607.5,1154.5C 1596.5,1154.5 1585.5,1154.5 1574.5,1154.5C 1574.5,1084.5 1574.5,1014.5 1574.5,944.5 Z M 1607.5,975.5 C 1673.17,975.5 1738.83,975.5 1804.5,975.5C 1804.5,1013.83 1804.5,1052.17 1804.5,1090.5C 1738.83,1090.5 1673.17,1090.5 1607.5,1090.5C 1607.5,1052.17 1607.5,1013.83 1607.5,975.5 Z"/></g>
<g><path style="opacity:0.494" fill="#41566d" d="M 1865.5,944.5 C 1993.83,944.5 2122.17,944.5 2250.5,944.5C 2250.5,1003.5 2250.5,1062.5 2250.5,1121.5C 2191.5,1121.5 2132.5,1121.5 2073.5,1121.5C 2073.5,1132.5 2073.5,1143.5 2073.5,1154.5C 2062.83,1154.5 2052.17,1154.5 2041.5,1154.5C 2041.5,1143.5 2041.5,1132.5 2041.5,1121.5C 1982.83,1121.5 1924.17,1121.5 1865.5,1121.5C 1865.5,1062.5 1865.5,1003.5 1865.5,944.5 Z M 1896.5,975.5 C 1944.83,975.5 1993.17,975.5 2041.5,975.5C 2041.5,1013.83 2041.5,1052.17 2041.5,1090.5C 1993.17,1090.5 1944.83,1090.5 1896.5,1090.5C 1896.5,1052.17 1896.5,1013.83 1896.5,975.5 Z M 2073.5,975.5 C 2121.83,975.5 2170.17,975.5 2218.5,975.5C 2218.5,1013.83 2218.5,1052.17 2218.5,1090.5C 2170.17,1090.5 2121.83,1090.5 2073.5,1090.5C 2073.5,1052.17 2073.5,1013.83 2073.5,975.5 Z"/></g>
</svg>
